<svg xmlns="http://www.w3.org/2000/svg" version="1.1" xmlns:xlink="http://www.w3.org/1999/xlink" xmlns:svgjs="http://svgjs.com/svgjs" width="1440" height="1440" preserveAspectRatio="none" viewBox="0 0 1440 1440"><g mask="url(&quot;#SvgjsMask1035&quot;)" fill="none"><rect width="1440" height="1440" x="0" y="0" fill="rgba(0, 176, 255, 1)"/><path d="M0,718.035C135.905,718.085,284.526,686.518,377.486,587.379C466.794,492.134,450.536,344.172,471.411,215.286C486.921,119.525,494.105,26.897,483.889,-69.573C473.297,-169.595,470.471,-275.006,410.909,-356.055C349.273,-439.926,246.148,-474.268,152.739,-520.181C40.176,-575.508,-73.205,-693.87,-191.487,-652.146C-311.258,-609.897,-321.787,-442.974,-382.449,-331.394C-429.051,-245.676,-477.418,-165.964,-506.448,-72.816C-540.544,36.587,-588.34,146.175,-566.332,258.635C-541.57,385.17,-477.439,505.874,-377.306,587.1C-271.781,672.701,-135.879,717.985,0,718.035" fill="#0089c7"/><path d="M1440 1988.845C1566.61 2013.5149999999999 1698.766 2078.032 1817.214 2026.9569999999999 1938.561 1974.6309999999999 2011.319 1845.871 2058.1459999999997 1722.298 2103.214 1603.367 2107.6459999999997 1471.522 2074.191 1348.817 2042.982 1234.351 1961.498 1144.728 1877.758 1060.68 1798.925 981.558 1707.587 922.191 1605.036 877.939 1490.41 828.476 1368.286 752.672 1248.949 789.34 1129.7 825.981 1089.961 971.768 1004.3530000000001 1062.51 913.768 1158.528 758.347 1208.905 731.241 1338.096 704.146 1467.238 791.805 1594.189 870.594 1700.039 939.419 1792.503 1043.945 1844.173 1146.745 1896.314 1240.05 1943.6390000000001 1337.31 1968.836 1440 1988.845" fill="#38c1ff"/></g><defs><mask id="SvgjsMask1035"><rect width="1440" height="1440" fill="#ffffff"/></mask></defs></svg>